<svg aria-hidden="true" style="position:absolute;width:0;height:0;overflow:hidden" xmlns="http://www.w3.org/2000/svg">
  <defs>
    <symbol id="icon-calendar" viewBox="0 0 32 32">
      <path d="M12,19a1,1,0,1,0-1-1A1,1,0,0,0,12,19Zm5,0a1,1,0,1,0-1-1A1,1,0,0,0,17,19Zm0-4a1,1,0,1,0-1-1A1,1,0,0,0,17,15Zm-5,0a1,1,0,1,0-1-1A1,1,0,0,0,12,15ZM19,3H18V2a1,1,0,0,0-2,0V3H8V2A1,1,0,0,0,6,2V3H5A3,3,0,0,0,2,6V20a3,3,0,0,0,3,3H19a3,3,0,0,0,3-3V6A3,3,0,0,0,19,3Zm1,17a1,1,0,0,1-1,1H5a1,1,0,0,1-1-1V11H20ZM20,9H4V6A1,1,0,0,1,5,5H6V6A1,1,0,0,0,8,6V5h8V6a1,1,0,0,0,2,0V5h1a1,1,0,0,1,1,1ZM7,15a1,1,0,1,0-1-1A1,1,0,0,0,7,15Zm0,4a1,1,0,1,0-1-1A1,1,0,0,0,7,19Z"/>
    </symbol>
    <symbol id="icon-close" viewBox="0 0 32 32">
      <path d="m25.333 8.547-1.88-1.88L16 14.12 8.547 6.667l-1.88 1.88L14.12 16l-7.453 7.453 1.88 1.88L16 17.88l7.453 7.453 1.88-1.88L17.88 16l7.453-7.453z"/>
    </symbol>
    <symbol id="icon-eye" viewBox="0 0 32 32">
      <path d="M16 6c-6.979 0-13.028 4.064-16 10 2.972 5.936 9.021 10 16 10s13.027-4.064 16-10c-2.972-5.936-9.021-10-16-10zM23.889 11.303c1.88 1.199 3.473 2.805 4.67 4.697-1.197 1.891-2.79 3.498-4.67 4.697-2.362 1.507-5.090 2.303-7.889 2.303s-5.527-0.796-7.889-2.303c-1.88-1.199-3.473-2.805-4.67-4.697 1.197-1.891 2.79-3.498 4.67-4.697 0.122-0.078 0.246-0.154 0.371-0.228-0.311 0.854-0.482 1.776-0.482 2.737 0 4.418 3.582 8 8 8s8-3.582 8-8c0-0.962-0.17-1.883-0.482-2.737 0.124 0.074 0.248 0.15 0.371 0.228v0zM16 13c0 1.657-1.343 3-3 3s-3-1.343-3-3 1.343-3 3-3 3 1.343 3 3z"></path>
    </symbol>
    <symbol id="icon-eye-blocked" viewBox="0 0 32 32">
      <path d="M29.561 0.439c-0.586-0.586-1.535-0.586-2.121 0l-6.318 6.318c-1.623-0.492-3.342-0.757-5.122-0.757-6.979 0-13.028 4.064-16 10 1.285 2.566 3.145 4.782 5.407 6.472l-4.968 4.968c-0.586 0.586-0.586 1.535 0 2.121 0.293 0.293 0.677 0.439 1.061 0.439s0.768-0.146 1.061-0.439l27-27c0.586-0.586 0.586-1.536 0-2.121zM13 10c1.32 0 2.44 0.853 2.841 2.037l-3.804 3.804c-1.184-0.401-2.037-1.521-2.037-2.841 0-1.657 1.343-3 3-3zM3.441 16c1.197-1.891 2.79-3.498 4.67-4.697 0.122-0.078 0.246-0.154 0.371-0.228-0.311 0.854-0.482 1.776-0.482 2.737 0 1.715 0.54 3.304 1.459 4.607l-1.904 1.904c-1.639-1.151-3.038-2.621-4.114-4.323z"></path>
      <path d="M24 13.813c0-0.849-0.133-1.667-0.378-2.434l-10.056 10.056c0.768 0.245 1.586 0.378 2.435 0.378 4.418 0 8-3.582 8-8z"></path>
      <path d="M25.938 9.062l-2.168 2.168c0.040 0.025 0.079 0.049 0.118 0.074 1.88 1.199 3.473 2.805 4.67 4.697-1.197 1.891-2.79 3.498-4.67 4.697-2.362 1.507-5.090 2.303-7.889 2.303-1.208 0-2.403-0.149-3.561-0.439l-2.403 2.403c1.866 0.671 3.873 1.036 5.964 1.036 6.978 0 13.027-4.064 16-10-1.407-2.81-3.504-5.2-6.062-6.938z"></path>
    </symbol>
    <symbol id="icon-arrow-down" width="10" height="7" fill="none" viewBox="0 0 10 7" xmlns="http://www.w3.org/2000/svg">
      <path d="M1 1.5L5 5.5L9 1.5" stroke-opacity="0.8" stroke-width="1.5" stroke-linecap="round" stroke-linejoin="round"/>
    </symbol>
    <symbol id='user-avatar-icon' viewBox="0 0 56 48" xmlns="http://www.w3.org/2000/svg">
      <circle cx="28.3333" cy="11.3334" r="11.3334"/>
      <path d="M55.7529 49.812C55.7529 46.1512 55.0319 42.5263 53.6309 39.1441C52.23 35.762 50.1766 32.6889 47.5881 30.1004C44.9995 27.5118 41.9264 25.4584 38.5443 24.0575C35.1622 22.6566 31.5372 21.9355 27.8764 21.9355C24.2157 21.9355 20.5907 22.6566 17.2086 24.0575C13.8265 25.4584 10.7534 27.5118 8.16482 30.1004C5.57625 32.6889 3.52289 35.762 2.12197 39.1441C0.721045 42.5263 -3.20036e-07 46.1512 0 49.812L27.8765 49.812H55.7529Z"/>
    </symbol>
    // Button +
    <symbol id="icon-plus" fill="none" viewBox="0 0 32 32">
       <path d="M22 0H6C2.68629 0 0 2.68629 0 6V22C0 25.3137 2.68629 28 6 28H22C25.3137 28 28 25.3137 28 22V6C28 2.68629 25.3137 0 22 0Z" fill="#161616"/>
       <path d="M14 9.91667V18.0833" stroke="white" stroke-linecap="round" stroke-linejoin="round"/>
       <path d="M9.91663 14H18.0833" stroke="white" stroke-linecap="round" stroke-linejoin="round"/>
    </symbol>
    // NewBoard Icons
    <symbol id="colors" fill="none" viewBox="0 0 32 32" >
       <path stroke="#fff" stroke-linecap="round" stroke-linejoin="round" stroke-opacity=".5" stroke-width="1.5" d="M9 15.354a4.5 4.5 0 1 0 4.185-7.697m-8.37 0A4.502 4.502 0 0 0 6 16.5a4.5 4.5 0 0 0 4.185-6.158M13.5 6a4.5 4.5 0 1 1-9 0 4.5 4.5 0 0 1 9 0Z"/>
    </symbol>
    <symbol id="hexagon" fill="none" viewBox="0 0 32 32">
       <path stroke="#fff" stroke-linecap="round" stroke-linejoin="round" stroke-opacity=".5" stroke-width="1.5" d="M8.417 1.824c.213-.118.32-.178.432-.2a.75.75 0 0 1 .302 0c.113.022.22.082.432.2l5.55 3.083c.224.125.337.187.419.276a.75.75 0 0 1 .16.273c.038.115.038.243.038.5v6.088c0 .257 0 .385-.038.5a.75.75 0 0 1-.16.273c-.082.089-.195.151-.42.276l-5.55 3.083c-.212.118-.318.177-.43.2a.75.75 0 0 1-.303 0c-.113-.023-.22-.082-.432-.2l-5.55-3.083c-.224-.125-.337-.187-.419-.276a.75.75 0 0 1-.16-.273c-.038-.115-.038-.243-.038-.5V5.956c0-.257 0-.385.038-.5a.75.75 0 0 1 .16-.273c.082-.089.195-.151.42-.276l5.55-3.083Z"/>
    </symbol>
    <symbol id="project" fill="none" viewBox="0 0 32 32">
       <path stroke="#fff" stroke-opacity=".5" stroke-width="1.5" d="M2.473 3.925a1.95 1.95 0 0 1 1.452-1.452 4.158 4.158 0 0 1 1.9 0 1.95 1.95 0 0 1 1.452 1.452 4.158 4.158 0 0 1 0 1.9 1.95 1.95 0 0 1-1.452 1.452 4.158 4.158 0 0 1-1.9 0 1.95 1.95 0 0 1-1.452-1.452 4.158 4.158 0 0 1 0-1.9ZM2.473 12.175a1.95 1.95 0 0 1 1.452-1.452 4.156 4.156 0 0 1 1.9 0 1.95 1.95 0 0 1 1.452 1.452 4.159 4.159 0 0 1 0 1.9 1.95 1.95 0 0 1-1.452 1.452 4.156 4.156 0 0 1-1.9 0 1.95 1.95 0 0 1-1.452-1.452 4.159 4.159 0 0 1 0-1.9ZM10.723 3.925a1.95 1.95 0 0 1 1.452-1.452 4.159 4.159 0 0 1 1.9 0 1.95 1.95 0 0 1 1.452 1.452 4.156 4.156 0 0 1 0 1.9 1.95 1.95 0 0 1-1.452 1.452 4.159 4.159 0 0 1-1.9 0 1.95 1.95 0 0 1-1.452-1.452 4.156 4.156 0 0 1 0-1.9ZM10.723 12.175a1.949 1.949 0 0 1 1.452-1.452 4.157 4.157 0 0 1 1.9 0c.72.169 1.283.732 1.452 1.452a4.157 4.157 0 0 1 0 1.9 1.949 1.949 0 0 1-1.452 1.452 4.157 4.157 0 0 1-1.9 0 1.949 1.949 0 0 1-1.452-1.452 4.157 4.157 0 0 1 0-1.9Z"/>
    </symbol>
    <symbol id="container" fill="none" viewBox="0 0 32 32">
        <path stroke="#fff" stroke-linecap="round" stroke-linejoin="round" stroke-opacity=".5" stroke-width="1.5" d="M15.375 5.458 9 9m0 0L2.625 5.458M9 9v7.125m6.75-4.081V5.956c0-.257 0-.385-.038-.5a.75.75 0 0 0-.16-.273c-.082-.089-.195-.151-.42-.276l-5.55-3.083c-.212-.118-.318-.178-.43-.2a.75.75 0 0 0-.303 0c-.113.022-.22.082-.432.2l-5.55 3.083c-.224.125-.337.187-.419.276a.75.75 0 0 0-.16.273c-.038.115-.038.243-.038.5v6.088c0 .257 0 .385.038.5a.75.75 0 0 0 .16.273c.082.089.195.151.42.276l5.55 3.083c.212.118.318.177.43.2.1.021.203.021.303 0 .113-.023.22-.082.432-.2l5.55-3.083c.224-.125.337-.187.419-.276a.75.75 0 0 0 .16-.273c.038-.115.038-.243.038-.5Z"/>
    </symbol>
    <symbol id="lightnight" fill="none" viewBox="0 0 32 32">
        <path stroke="#fff" stroke-linecap="round" stroke-linejoin="round" stroke-opacity=".5" stroke-width="1.5" d="M10.687 1.5H6.37c-.134 0-.201 0-.26.02a.375.375 0 0 0-.141.087c-.045.044-.075.104-.135.225l-3.15 6.3c-.144.287-.216.431-.199.548a.375.375 0 0 0 .156.252C2.738 9 2.9 9 3.221 9h4.654l-2.25 7.5 9.145-9.484c.308-.32.462-.48.471-.616a.375.375 0 0 0-.132-.311C15.004 6 14.782 6 14.338 6H9l1.687-4.5Z"/>
    </symbol>
    <symbol id="loading" fill="none" viewBox="0 0 32 32">
        <path stroke="#fff" stroke-linecap="round" stroke-linejoin="round" stroke-opacity=".5" stroke-width="1.5" d="M2.505 12.75a3.58 3.58 0 0 1 1.093-4.755l.002-.002a3.583 3.583 0 0 1 4.113.071l2.574 1.872a3.583 3.583 0 0 0 4.113.07l.002-.001a3.578 3.578 0 0 0 1.093-4.755m-2.743 10.245A3.58 3.58 0 0 1 7.997 14.4l-.002-.002a3.583 3.583 0 0 1 .07-4.113l1.872-2.574a3.583 3.583 0 0 0 .071-4.113l-.003-.001A3.58 3.58 0 0 0 5.25 2.505m9.053 1.192a7.5 7.5 0 0 1 0 10.606 7.5 7.5 0 0 1-10.606 0 7.5 7.5 0 0 1 0-10.606 7.5 7.5 0 0 1 10.606 0Z"/>
    </symbol>
    <symbol id="puzzle" fill="none" viewBox="0 0 32 32">
        <path stroke="#fff" stroke-linecap="round" stroke-linejoin="round" stroke-opacity=".5" stroke-width="1.5" d="m9 1.5 2.7 2.7c1.8-4.725 6.825.3 2.1 2.1L16.5 9l-2.7 2.7c-1.8-4.725-6.825.3-2.1 2.1L9 16.5l-2.7-2.7c-1.8 4.725-6.825-.3-2.1-2.1L1.5 9l2.7-2.7C6 11.025 11.025 6 6.3 4.2L9 1.5Z"/>
    </symbol>
    <symbol id="star" fill="none" viewBox="0 0 32 32">
        <path stroke="#fff" stroke-linecap="round" stroke-linejoin="round" stroke-opacity=".5" stroke-width="1.5" d="m9 1.5 1.509 3.923c.211.55.317.825.482 1.056.145.205.325.385.53.53.23.165.506.27 1.056.482L16.5 9l-3.923 1.509c-.55.211-.825.317-1.056.482a2.247 2.247 0 0 0-.53.53c-.165.23-.27.506-.482 1.056L9 16.5l-1.509-3.923c-.211-.55-.317-.825-.482-1.056a2.248 2.248 0 0 0-.53-.53c-.23-.165-.506-.27-1.056-.482L1.5 9l3.923-1.509c.55-.211.825-.317 1.056-.482a2.25 2.25 0 0 0 .53-.53c.165-.23.27-.506.482-1.056L9 1.5Z"/>
    </symbol>
    //
  </defs>
</svg>  
